<?xml version="1.0" standalone="no"?>
<!DOCTYPE svg PUBLIC "-//W3C//DTD SVG 20010904//EN"
 "http://www.w3.org/TR/2001/REC-SVG-20010904/DTD/svg10.dtd">
<svg version="1.0" xmlns="http://www.w3.org/2000/svg"
 width="394.000000pt" height="394.000000pt" viewBox="0 0 394.000000 394.000000"
 preserveAspectRatio="xMidYMid meet">
<metadata>
Created by potrace 1.14, written by Peter Selinger 2001-2017
</metadata>
<g transform="translate(0.000000,394.000000) scale(0.100000,-0.100000)"
fill="#000000" stroke="none">
<path d="M2084 3335 l-161 -162 42 -11 c91 -24 150 -107 143 -198 -12 -144
-168 -222 -290 -145 -46 30 -88 95 -88 139 0 17 -30 -8 -134 -112 -113 -113
-136 -141 -142 -173 -16 -90 -77 -151 -167 -167 -32 -6 -60 -29 -173 -142
-104 -104 -129 -134 -112 -134 44 0 109 -42 139 -88 77 -121 -2 -278 -145
-290 -91 -7 -174 53 -198 143 l-11 42 -162 -161 -161 -161 18 -72 c62 -244
209 -493 401 -679 209 -203 454 -331 757 -395 150 -32 410 -32 560 0 317 67
542 185 763 400 228 221 359 464 428 791 32 150 32 410 0 560 -64 303 -192
548 -395 757 -186 192 -435 339 -679 401 l-72 18 -161 -161z m427 -568 c44
-29 71 -82 66 -128 -3 -19 -64 -170 -137 -335 -73 -164 -159 -358 -190 -430
l-58 -131 34 -49 c134 -194 55 -470 -159 -559 -226 -94 -478 46 -516 287 -11
68 1 156 30 216 53 110 180 200 295 210 46 4 53 8 66 36 8 17 93 209 188 426
96 217 181 406 189 419 39 61 130 79 192 38z m450 -572 c116 -81 104 -256 -21
-320 -57 -29 -96 -31 -148 -10 -160 67 -161 278 -2 350 51 22 120 14 171 -20z"/>
</g>
</svg>
