<svg fill="none" height="1080" viewBox="0 0 1080 1080" width="1080" xmlns="http://www.w3.org/2000/svg"><path d="m0 0h1080v1080h-1080z" fill="#fff"/><path d="m840.336 591.437c0 5.216-1.681 9.215-5.042 11.996-3.245 2.666-6.954 3.999-11.126 3.999-4.173 0-7.94-1.333-11.301-3.999-3.245-2.781-4.868-6.78-4.868-11.996 0-5.215 1.623-9.156 4.868-11.822 3.361-2.781 7.128-4.172 11.301-4.172 4.172 0 7.881 1.391 11.126 4.172 3.361 2.666 5.042 6.607 5.042 11.822z" fill="#9fe870"/><g fill="#000"><path d="m749.591 541.542 18.081-27.817h26.773l-31.293 43.985c6.954 8.693 13.271 17.154 18.95 25.383s10.199 15.589 13.56 22.079h-27.816c-.927-1.738-2.086-3.883-3.477-6.432-1.391-2.666-2.956-5.39-4.694-8.172-1.739-2.897-3.593-5.737-5.564-8.518-1.854-2.898-3.709-5.506-5.563-7.824-1.739 2.202-3.535 4.636-5.389 7.302-1.739 2.666-3.42 5.39-5.042 8.171-1.623 2.666-3.245 5.332-4.868 7.997-1.507 2.666-2.84 5.158-3.999 7.476h-26.426c1.391-2.897 3.304-6.317 5.738-10.257 2.434-3.941 5.041-7.997 7.823-12.17 2.898-4.288 5.911-8.519 9.04-12.691 3.13-4.289 6.201-8.287 9.215-11.996-5.216-7.302-10.432-14.662-15.647-22.08-5.216-7.533-10.373-14.951-15.473-22.253h27.99z"/><path d="m683.472 605.172h-25.904v-91.447h25.904zm2.434-117.873c0 4.752-1.564 8.519-4.694 11.301-3.013 2.665-6.606 3.998-10.779 3.998-4.172 0-7.823-1.333-10.952-3.998-3.014-2.782-4.521-6.549-4.521-11.301s1.507-8.461 4.521-11.127c3.129-2.781 6.78-4.172 10.952-4.172 4.173 0 7.766 1.391 10.779 4.172 3.13 2.666 4.694 6.375 4.694 11.127z"/><path d="m549.758 516.854c4.405-1.275 10.084-2.434 17.038-3.477 6.954-1.159 14.256-1.738 21.906-1.738 7.765 0 14.198 1.043 19.297 3.129 5.216 1.97 9.331 4.81 12.344 8.519s5.158 8.113 6.433 13.213c1.275 5.099 1.912 10.779 1.912 17.037v51.635h-25.904v-48.505c0-8.345-1.101-14.256-3.303-17.733-2.203-3.477-6.317-5.216-12.344-5.216-1.854 0-3.825.116-5.911.348-2.086.116-3.941.29-5.563.521v70.585h-25.905z"/><path d="m524.259 559.275c0 7.186-1.043 13.792-3.129 19.819-2.087 5.911-5.1 11.011-9.041 15.299-3.94 4.173-8.692 7.418-14.256 9.736-5.447 2.318-11.59 3.477-18.428 3.477-6.723 0-12.865-1.159-18.429-3.477-5.447-2.318-10.141-5.563-14.082-9.736-3.941-4.288-7.012-9.388-9.214-15.299-2.202-6.027-3.303-12.633-3.303-19.819s1.101-13.735 3.303-19.646c2.318-5.911 5.447-10.953 9.388-15.125 4.057-4.173 8.808-7.418 14.256-9.736 5.563-2.318 11.59-3.477 18.081-3.477 6.606 0 12.633 1.159 18.08 3.477 5.564 2.318 10.316 5.563 14.257 9.736 3.94 4.172 7.012 9.214 9.214 15.125s3.303 12.46 3.303 19.646zm-26.426 0c0-7.998-1.622-14.256-4.868-18.777-3.129-4.636-7.649-6.954-13.56-6.954s-10.489 2.318-13.735 6.954c-3.245 4.521-4.868 10.779-4.868 18.777 0 7.997 1.623 14.372 4.868 19.124 3.246 4.636 7.824 6.954 13.735 6.954s10.431-2.318 13.56-6.954c3.246-4.752 4.868-11.127 4.868-19.124z"/><path d="m416.755 536.674c-2.318-.58-5.042-1.159-8.171-1.739-3.13-.695-6.491-1.043-10.084-1.043-1.622 0-3.593.174-5.911.521-2.202.232-3.882.522-5.041.87v69.889h-25.905v-86.579c4.636-1.623 10.084-3.13 16.343-4.52 6.374-1.507 13.444-2.261 21.21-2.261 1.391 0 3.071.116 5.041.348 1.971.116 3.941.348 5.911.696 1.971.231 3.941.579 5.912 1.043 1.97.347 3.65.811 5.041 1.391z"/><path d="m300.153 607.606c-19.587 0-34.539-5.448-44.854-16.342-10.199-10.895-15.299-26.368-15.299-46.419 0-9.968 1.565-18.834 4.694-26.6 3.129-7.881 7.418-14.488 12.865-19.819 5.448-5.448 11.938-9.562 19.472-12.344s15.705-4.172 24.513-4.172c5.1 0 9.736.405 13.909 1.217 4.172.695 7.823 1.564 10.952 2.607 3.13.928 5.737 1.913 7.824 2.956 2.086 1.043 3.593 1.854 4.52 2.434l-7.824 21.905c-3.708-1.97-8.055-3.65-13.039-5.041-4.867-1.391-10.431-2.087-16.689-2.087-4.173 0-8.288.696-12.344 2.087-3.941 1.391-7.476 3.651-10.605 6.78-3.014 3.013-5.448 6.954-7.302 11.822s-2.782 10.779-2.782 17.733c0 5.563.58 10.779 1.739 15.647 1.275 4.752 3.245 8.867 5.911 12.344 2.782 3.477 6.374 6.258 10.779 8.345 4.404 1.97 9.736 2.955 15.994 2.955 3.941 0 7.476-.232 10.605-.695 3.13-.464 5.911-.985 8.345-1.565 2.434-.695 4.579-1.449 6.433-2.26s3.535-1.565 5.042-2.26l7.475 21.732c-3.824 2.318-9.214 4.404-16.168 6.258-6.954 1.855-15.009 2.782-24.166 2.782z"/></g></svg>