<svg width="601" height="136" viewBox="0 0 601 136" fill="none" xmlns="http://www.w3.org/2000/svg">
<path d="M600.336 119.437C600.336 124.653 598.655 128.652 595.294 131.433C592.049 134.099 588.34 135.432 584.168 135.432C579.995 135.432 576.228 134.099 572.867 131.433C569.622 128.652 567.999 124.653 567.999 119.437C567.999 114.222 569.622 110.281 572.867 107.615C576.228 104.834 579.995 103.443 584.168 103.443C588.34 103.443 592.049 104.834 595.294 107.615C598.655 110.281 600.336 114.222 600.336 119.437Z" fill="#9FE870"/>
<path d="M509.591 69.5417L527.672 41.7251H554.445L523.152 85.7101C530.106 94.4028 536.423 102.864 542.102 111.093C547.781 119.322 552.301 126.682 555.662 133.172H527.846C526.919 131.434 525.76 129.289 524.369 126.74C522.978 124.074 521.413 121.35 519.675 118.568C517.936 115.671 516.082 112.831 514.111 110.05C512.257 107.152 510.402 104.544 508.548 102.226C506.809 104.428 505.013 106.862 503.159 109.528C501.42 112.194 499.739 114.918 498.117 117.699C496.494 120.365 494.872 123.031 493.249 125.696C491.742 128.362 490.409 130.854 489.25 133.172H462.824C464.215 130.275 466.128 126.855 468.562 122.915C470.996 118.974 473.603 114.918 476.385 110.745C479.283 106.457 482.296 102.226 485.425 98.0537C488.555 93.7653 491.626 89.7667 494.64 86.0578C489.424 78.7559 484.208 71.3961 478.993 63.9784C473.777 56.4447 468.62 49.027 463.52 41.7251H491.51L509.591 69.5417Z" fill="black"/>
<path d="M443.472 133.172H417.568V41.7249H443.472V133.172ZM445.906 15.2991C445.906 20.0511 444.342 23.818 441.212 26.5996C438.199 29.2654 434.606 30.5983 430.433 30.5983C426.261 30.5983 422.61 29.2654 419.481 26.5996C416.467 23.818 414.96 20.0511 414.96 15.2991C414.96 10.5471 416.467 6.83825 419.481 4.17249C422.61 1.39083 426.261 0 430.433 0C434.606 0 438.199 1.39083 441.212 4.17249C444.342 6.83825 445.906 10.5471 445.906 15.2991Z" fill="black"/>
<path d="M309.758 44.8543C314.163 43.5794 319.842 42.4203 326.796 41.3772C333.75 40.2182 341.052 39.6387 348.702 39.6387C356.467 39.6387 362.9 40.6818 367.999 42.768C373.215 44.7384 377.33 47.578 380.343 51.2869C383.356 54.9958 385.501 59.4 386.776 64.4998C388.051 69.5995 388.688 75.2787 388.688 81.5374V133.172H362.784V84.6668C362.784 76.3218 361.683 70.4108 359.481 66.9337C357.278 63.4566 353.164 61.7181 347.137 61.7181C345.283 61.7181 343.312 61.834 341.226 62.0658C339.14 62.1817 337.285 62.3556 335.663 62.5874V133.172H309.758V44.8543Z" fill="black"/>
<path d="M284.259 87.2747C284.259 94.4606 283.216 101.067 281.13 107.094C279.043 113.005 276.03 118.105 272.089 122.393C268.149 126.566 263.397 129.811 257.833 132.129C252.386 134.447 246.243 135.606 239.405 135.606C232.682 135.606 226.54 134.447 220.976 132.129C215.529 129.811 210.835 126.566 206.894 122.393C202.953 118.105 199.882 113.005 197.68 107.094C195.478 101.067 194.377 94.4606 194.377 87.2747C194.377 80.0887 195.478 73.5402 197.68 67.6292C199.998 61.7181 203.127 56.6764 207.068 52.5039C211.125 48.3314 215.876 45.0861 221.324 42.7681C226.887 40.45 232.914 39.291 239.405 39.291C246.011 39.291 252.038 40.45 257.485 42.7681C263.049 45.0861 267.801 48.3314 271.742 52.5039C275.682 56.6764 278.754 61.7181 280.956 67.6292C283.158 73.5402 284.259 80.0887 284.259 87.2747ZM257.833 87.2747C257.833 79.2774 256.211 73.0186 252.965 68.4984C249.836 63.8623 245.316 61.5443 239.405 61.5443C233.494 61.5443 228.916 63.8623 225.67 68.4984C222.425 73.0186 220.802 79.2774 220.802 87.2747C220.802 95.2719 222.425 101.647 225.67 106.399C228.916 111.035 233.494 113.353 239.405 113.353C245.316 113.353 249.836 111.035 252.965 106.399C256.211 101.647 257.833 95.2719 257.833 87.2747Z" fill="black"/>
<path d="M176.755 64.6736C174.437 64.0941 171.713 63.5145 168.584 62.935C165.454 62.2396 162.093 61.8919 158.5 61.8919C156.878 61.8919 154.907 62.0658 152.589 62.4135C150.387 62.6453 148.707 62.935 147.548 63.2827V133.172H121.643V46.5928C126.279 44.9702 131.727 43.4634 137.986 42.0726C144.36 40.5659 151.43 39.8125 159.196 39.8125C160.587 39.8125 162.267 39.9284 164.237 40.1602C166.208 40.2761 168.178 40.5079 170.148 40.8556C172.119 41.0874 174.089 41.4351 176.06 41.8987C178.03 42.2464 179.71 42.7101 181.101 43.2896L176.755 64.6736Z" fill="black"/>
<path d="M60.1534 135.606C40.5659 135.606 25.6144 130.158 15.2991 119.264C5.09971 108.369 0 92.8958 0 72.8447C0 62.8771 1.56468 54.0106 4.69405 46.2451C7.82342 38.3637 12.1118 31.7573 17.5592 26.4258C23.0066 20.9784 29.4972 16.8638 37.0308 14.0822C44.5645 11.3005 52.7356 9.90967 61.5442 9.90967C66.6439 9.90967 71.28 10.3153 75.4525 11.1266C79.625 11.8221 83.2759 12.6913 86.4053 13.7345C89.5347 14.6617 92.1425 15.6468 94.2287 16.69C96.3149 17.7331 97.8217 18.5444 98.7489 19.1239L90.9255 41.0295C87.2166 39.0591 82.8703 37.3786 77.8865 35.9877C73.0186 34.5969 67.4552 33.9015 61.1965 33.9015C57.024 33.9015 52.9095 34.5969 48.8529 35.9877C44.9122 37.3786 41.3772 39.6386 38.2478 42.768C35.2344 45.7815 32.8004 49.7222 30.946 54.5901C29.0915 59.458 28.1643 65.369 28.1643 72.3231C28.1643 77.8865 28.7438 83.1021 29.9028 87.97C31.1778 92.722 33.1481 96.8365 35.8139 100.314C38.5955 103.791 42.1885 106.572 46.5928 108.659C50.9971 110.629 56.3286 111.614 62.5873 111.614C66.528 111.614 70.063 111.382 73.1924 110.919C76.3218 110.455 79.1034 109.934 81.5374 109.354C83.9713 108.659 86.1155 107.905 87.97 107.094C89.8244 106.283 91.505 105.529 93.0117 104.834L100.487 126.566C96.6627 128.884 91.2732 130.97 84.319 132.824C77.3649 134.679 69.3097 135.606 60.1534 135.606Z" fill="black"/>
</svg>
