<svg width="1080" height="1080" viewBox="0 0 1080 1080" fill="none" xmlns="http://www.w3.org/2000/svg">
<rect width="1080" height="1080" fill="black"/>
<path d="M840.336 591.437C840.336 596.653 838.655 600.652 835.294 603.433C832.049 606.099 828.34 607.432 824.167 607.432C819.995 607.432 816.228 606.099 812.867 603.433C809.622 600.652 807.999 596.653 807.999 591.437C807.999 586.222 809.622 582.281 812.867 579.615C816.228 576.834 819.995 575.443 824.167 575.443C828.34 575.443 832.049 576.834 835.294 579.615C838.655 582.281 840.336 586.222 840.336 591.437Z" fill="#9FE870"/>
<path d="M749.591 541.542L767.672 513.725H794.445L763.152 557.71C770.106 566.403 776.423 574.863 782.102 583.093C787.781 591.322 792.301 598.681 795.662 605.172H767.846C766.919 603.433 765.76 601.289 764.369 598.739C762.978 596.074 761.413 593.35 759.675 590.568C757.936 587.671 756.082 584.831 754.111 582.049C752.257 579.152 750.402 576.544 748.548 574.226C746.809 576.428 745.013 578.862 743.159 581.528C741.42 584.194 739.739 586.917 738.117 589.699C736.494 592.365 734.872 595.031 733.249 597.696C731.742 600.362 730.409 602.854 729.25 605.172H702.824C704.215 602.274 706.128 598.855 708.562 594.915C710.996 590.974 713.603 586.917 716.385 582.745C719.283 578.456 722.296 574.226 725.425 570.054C728.555 565.765 731.626 561.766 734.64 558.058C729.424 550.756 724.208 543.396 718.993 535.978C713.777 528.445 708.62 521.027 703.52 513.725H731.51L749.591 541.542Z" fill="white"/>
<path d="M683.472 605.172H657.568V513.725H683.472V605.172ZM685.906 487.299C685.906 492.051 684.342 495.818 681.212 498.6C678.199 501.265 674.606 502.598 670.433 502.598C666.261 502.598 662.61 501.265 659.481 498.6C656.467 495.818 654.96 492.051 654.96 487.299C654.96 482.547 656.467 478.838 659.481 476.172C662.61 473.391 666.261 472 670.433 472C674.606 472 678.199 473.391 681.212 476.172C684.342 478.838 685.906 482.547 685.906 487.299Z" fill="white"/>
<path d="M549.758 516.854C554.163 515.579 559.842 514.42 566.796 513.377C573.75 512.218 581.052 511.639 588.702 511.639C596.467 511.639 602.9 512.682 607.999 514.768C613.215 516.738 617.329 519.578 620.343 523.287C623.356 526.996 625.501 531.4 626.775 536.5C628.05 541.599 628.688 547.279 628.688 553.537V605.172H602.784V556.667C602.784 548.322 601.683 542.411 599.48 538.934C597.278 535.457 593.164 533.718 587.137 533.718C585.282 533.718 583.312 533.834 581.226 534.066C579.14 534.182 577.285 534.355 575.663 534.587V605.172H549.758V516.854Z" fill="white"/>
<path d="M524.259 559.275C524.259 566.461 523.216 573.067 521.129 579.094C519.043 585.005 516.03 590.105 512.089 594.393C508.148 598.566 503.396 601.811 497.833 604.129C492.386 606.447 486.243 607.606 479.405 607.606C472.682 607.606 466.539 606.447 460.976 604.129C455.529 601.811 450.835 598.566 446.894 594.393C442.953 590.105 439.882 585.005 437.68 579.094C435.478 573.067 434.376 566.461 434.376 559.275C434.376 552.089 435.478 545.54 437.68 539.629C439.998 533.718 443.127 528.676 447.068 524.504C451.124 520.331 455.876 517.086 461.324 514.768C466.887 512.45 472.914 511.291 479.405 511.291C486.011 511.291 492.038 512.45 497.485 514.768C503.049 517.086 507.801 520.331 511.741 524.504C515.682 528.676 518.753 533.718 520.956 539.629C523.158 545.54 524.259 552.089 524.259 559.275ZM497.833 559.275C497.833 551.277 496.21 545.019 492.965 540.498C489.836 535.862 485.316 533.544 479.405 533.544C473.494 533.544 468.915 535.862 465.67 540.498C462.425 545.019 460.802 551.277 460.802 559.275C460.802 567.272 462.425 573.646 465.67 578.398C468.915 583.035 473.494 585.353 479.405 585.353C485.316 585.353 489.836 583.035 492.965 578.398C496.21 573.646 497.833 567.272 497.833 559.275Z" fill="white"/>
<path d="M416.755 536.674C414.437 536.094 411.713 535.515 408.584 534.935C405.454 534.24 402.093 533.892 398.5 533.892C396.878 533.892 394.907 534.066 392.589 534.413C390.387 534.645 388.707 534.935 387.548 535.283V605.172H361.643V518.593C366.279 516.97 371.727 515.463 377.986 514.073C384.36 512.566 391.43 511.812 399.196 511.812C400.587 511.812 402.267 511.928 404.237 512.16C406.208 512.276 408.178 512.508 410.148 512.856C412.119 513.087 414.089 513.435 416.06 513.899C418.03 514.246 419.71 514.71 421.101 515.29L416.755 536.674Z" fill="white"/>
<path d="M300.153 607.606C280.566 607.606 265.614 602.158 255.299 591.264C245.1 580.369 240 564.896 240 544.845C240 534.877 241.565 526.011 244.694 518.245C247.823 510.364 252.112 503.757 257.559 498.426C263.007 492.978 269.497 488.864 277.031 486.082C284.565 483.3 292.736 481.91 301.544 481.91C306.644 481.91 311.28 482.315 315.453 483.127C319.625 483.822 323.276 484.691 326.405 485.734C329.535 486.662 332.142 487.647 334.229 488.69C336.315 489.733 337.822 490.544 338.749 491.124L330.925 513.029C327.217 511.059 322.87 509.379 317.886 507.988C313.019 506.597 307.455 505.901 301.197 505.901C297.024 505.901 292.909 506.597 288.853 507.988C284.912 509.379 281.377 511.639 278.248 514.768C275.234 517.781 272.8 521.722 270.946 526.59C269.092 531.458 268.164 537.369 268.164 544.323C268.164 549.886 268.744 555.102 269.903 559.97C271.178 564.722 273.148 568.837 275.814 572.314C278.596 575.791 282.188 578.572 286.593 580.659C290.997 582.629 296.329 583.614 302.587 583.614C306.528 583.614 310.063 583.382 313.192 582.919C316.322 582.455 319.103 581.934 321.537 581.354C323.971 580.659 326.116 579.905 327.97 579.094C329.824 578.283 331.505 577.529 333.012 576.834L340.487 598.566C336.663 600.884 331.273 602.97 324.319 604.824C317.365 606.679 309.31 607.606 300.153 607.606Z" fill="white"/>
</svg>
